<svg width="52" height="53" viewBox="0 0 52 53" fill="none" xmlns="http://www.w3.org/2000/svg">
<g id="Frame 427319671">
<path id="Vector" d="M26.0308 0.525391C20.9376 0.525391 15.9589 2.03569 11.724 4.8653C7.48923 7.69491 4.1886 11.7167 2.23952 16.4222C0.290455 21.1277 -0.219511 26.3055 0.774116 31.3008C1.76774 36.2961 4.22034 40.8845 7.82175 44.486C11.4232 48.0874 16.0116 50.54 21.0069 51.5336C26.0022 52.5272 31.18 52.0172 35.8855 50.0682C40.591 48.1191 44.6128 44.8185 47.4424 40.5837C50.272 36.3488 51.7823 31.3701 51.7823 26.2769C51.7751 19.4494 49.0597 12.9036 44.2319 8.07579C39.4041 3.24801 32.8583 0.532601 26.0308 0.525391ZM19.5013 36.1813H32.5603C31.2306 40.7225 29.0021 44.8155 26.0308 48.0394C23.0595 44.8155 20.831 40.7225 19.5013 36.1813ZM18.6025 32.2195C17.9455 28.285 17.9455 24.2688 18.6025 20.3342H33.4591C34.1161 24.2688 34.1161 28.285 33.4591 32.2195H18.6025ZM4.24108 26.2769C4.23935 24.2674 4.51686 22.2674 5.06562 20.3342H14.5887C13.9978 24.274 13.9978 28.2798 14.5887 32.2195H5.06562C4.51686 30.2864 4.23935 28.2864 4.24108 26.2769ZM32.5603 16.3725H19.5013C20.831 11.8313 23.0595 7.73829 26.0308 4.5144C29.0021 7.73829 31.2306 11.8313 32.5603 16.3725ZM37.4729 20.3342H46.996C48.0954 24.2197 48.0954 28.3341 46.996 32.2195H37.4729C38.0639 28.2798 38.0639 24.274 37.4729 20.3342ZM45.4361 16.3725H36.6632C35.6523 12.3946 33.9546 8.62385 31.6466 5.22999C34.5953 6.0224 37.3455 7.42314 39.7203 9.34213C42.0952 11.2611 44.0422 13.6559 45.4361 16.3725ZM20.415 5.22999C18.107 8.62385 16.4093 12.3946 15.3984 16.3725H6.62557C8.01943 13.6559 9.9664 11.2611 12.3413 9.34213C14.7161 7.42314 17.4663 6.0224 20.415 5.22999ZM6.62557 36.1813H15.3984C16.4093 40.1592 18.107 43.9299 20.415 47.3238C17.4663 46.5314 14.7161 45.1306 12.3413 43.2117C9.9664 41.2927 8.01943 38.8979 6.62557 36.1813ZM31.6466 47.3238C33.9546 43.9299 35.6523 40.1592 36.6632 36.1813H45.4361C44.0422 38.8979 42.0952 41.2927 39.7203 43.2117C37.3455 45.1306 34.5953 46.5314 31.6466 47.3238Z" fill="black"/>
</g>
</svg>
