<svg width="88" height="88" viewBox="0 0 88 88" fill="none" xmlns="http://www.w3.org/2000/svg">
<g id="icons" clip-path="url(#clip0_1306_265)">
<path id="Vector" d="M11.2607 22.2979V49.459" stroke="white" stroke-width="4.46429" stroke-linecap="round" stroke-linejoin="round"/>
<path id="Vector_2" d="M19.4404 73.9038C24.7911 65.7283 33.4509 60.3232 43.9784 60.3232C54.5059 60.3232 63.1657 65.7283 68.5164 73.9038" stroke="white" stroke-width="4.46429" stroke-linecap="round" stroke-linejoin="round"/>
<path id="Vector_3" d="M76.6953 22.2971L43.978 33.1615L11.2607 22.2971L43.978 11.4326L76.6953 22.2971Z" stroke="white" stroke-width="4.46429" stroke-linecap="round" stroke-linejoin="round"/>
<path id="Vector_4" d="M58.0685 28.4834C60.5654 31.2056 62.2139 34.5923 62.813 38.2312C63.4122 41.8701 62.9362 45.604 61.4431 48.9782C59.95 52.3524 57.5041 55.2212 54.4035 57.2352C51.3028 59.2493 47.6812 60.3216 43.9796 60.3216C40.2781 60.3216 36.6565 59.2493 33.5558 57.2352C30.4551 55.2212 28.0093 52.3524 26.5162 48.9782C25.023 45.604 24.5471 41.8701 25.1462 38.2312C25.7454 34.5923 27.3938 31.2056 29.8907 28.4834" stroke="white" stroke-width="4.46429" stroke-linecap="round" stroke-linejoin="round"/>
</g>
<defs>
<clipPath id="clip0_1306_265">
<rect width="87.2461" height="86.9157" fill="white" transform="translate(0.353516 0.568359)"/>
</clipPath>
</defs>
</svg>
