<svg width="88" height="88" viewBox="0 0 88 88" fill="none" xmlns="http://www.w3.org/2000/svg">
<g id="icons" clip-path="url(#clip0_1306_112)">
<path id="Vector" d="M35.797 14.1484H19.4384C17.9326 14.1484 16.7119 15.3645 16.7119 16.8646V71.1868C16.7119 72.6869 17.9326 73.9029 19.4384 73.9029H35.797C37.3028 73.9029 38.5234 72.6869 38.5234 71.1868V16.8646C38.5234 15.3645 37.3028 14.1484 35.797 14.1484Z" stroke="white" stroke-width="4.46429" stroke-linecap="round" stroke-linejoin="round"/>
<path id="Vector_2" d="M74.5382 70.4299L58.5851 73.8251C58.2334 73.8996 57.8705 73.9041 57.5171 73.8383C57.1637 73.7726 56.8269 73.6378 56.526 73.4419C56.2251 73.2459 55.966 72.9926 55.7637 72.6965C55.5615 72.4005 55.42 72.0675 55.3474 71.7167L44.0395 18.1549C43.8874 17.4474 44.0224 16.7086 44.4151 16.0999C44.8078 15.4911 45.4262 15.0619 46.1355 14.9058L62.0886 11.5106C62.4402 11.4361 62.8031 11.4316 63.1565 11.4974C63.5099 11.5631 63.8468 11.6979 64.1477 11.8938C64.4486 12.0898 64.7076 12.3431 64.9099 12.6392C65.1122 12.9352 65.2536 13.2682 65.3262 13.619L76.6341 67.1808C76.7862 67.8883 76.6512 68.6271 76.2585 69.2358C75.8659 69.8446 75.2474 70.2738 74.5382 70.4299Z" stroke="white" stroke-width="4.46429" stroke-linecap="round" stroke-linejoin="round"/>
<path id="Vector_3" d="M16.7119 25.0127H38.5234" stroke="white" stroke-width="4.46429" stroke-linecap="round" stroke-linejoin="round"/>
<path id="Vector_4" d="M16.7119 63.0391H38.5234" stroke="white" stroke-width="4.46429" stroke-linecap="round" stroke-linejoin="round"/>
<path id="Vector_5" d="M45.7344 26.195L67.0177 21.6387" stroke="white" stroke-width="4.46429" stroke-linecap="round" stroke-linejoin="round"/>
<path id="Vector_6" d="M47.999 36.9098L69.2857 32.3535" stroke="white" stroke-width="4.46429" stroke-linecap="round" stroke-linejoin="round"/>
<path id="Vector_7" d="M53.6514 63.6979L74.9346 59.1416" stroke="white" stroke-width="4.46429" stroke-linecap="round" stroke-linejoin="round"/>
</g>
<defs>
<clipPath id="clip0_1306_112">
<rect width="87.2461" height="86.9157" fill="white" transform="translate(0.353516 0.568359)"/>
</clipPath>
</defs>
</svg>
