<svg width="88" height="88" viewBox="0 0 88 88" fill="none" xmlns="http://www.w3.org/2000/svg">
<g id="icons" clip-path="url(#clip0_1306_161)">
<path id="Vector" d="M15.7404 78.6939C15.3433 79.0267 14.8591 79.2397 14.3447 79.3078C13.8302 79.376 13.307 79.2965 12.8364 79.0786C12.3658 78.8608 11.9673 78.5137 11.6879 78.0781C11.4084 77.6424 11.2596 77.1364 11.2588 76.6195V22.2972C11.2588 21.5768 11.546 20.886 12.0573 20.3766C12.5687 19.8672 13.2621 19.5811 13.9852 19.5811H73.9669C74.69 19.5811 75.3835 19.8672 75.8948 20.3766C76.4061 20.886 76.6934 21.5768 76.6934 22.2972V65.755C76.6934 66.4754 76.4061 67.1662 75.8948 67.6756C75.3835 68.185 74.69 68.4711 73.9669 68.4711H28.4694C27.8272 68.4713 27.2056 68.6973 26.7143 69.1094L15.7404 78.6939Z" stroke="white" stroke-width="4.46429" stroke-linecap="round" stroke-linejoin="round"/>
<path id="Vector_2" d="M43.9774 47.4211C45.8596 47.4211 47.3854 45.9011 47.3854 44.026C47.3854 42.1509 45.8596 40.6309 43.9774 40.6309C42.0952 40.6309 40.5693 42.1509 40.5693 44.026C40.5693 45.9011 42.0952 47.4211 43.9774 47.4211Z" fill="white"/>
<path id="Vector_3" d="M28.9803 47.4211C30.8625 47.4211 32.3884 45.9011 32.3884 44.026C32.3884 42.1509 30.8625 40.6309 28.9803 40.6309C27.0981 40.6309 25.5723 42.1509 25.5723 44.026C25.5723 45.9011 27.0981 47.4211 28.9803 47.4211Z" fill="white"/>
<path id="Vector_4" d="M58.9735 47.4211C60.8557 47.4211 62.3815 45.9011 62.3815 44.026C62.3815 42.1509 60.8557 40.6309 58.9735 40.6309C57.0913 40.6309 55.5654 42.1509 55.5654 44.026C55.5654 45.9011 57.0913 47.4211 58.9735 47.4211Z" fill="white"/>
</g>
<defs>
<clipPath id="clip0_1306_161">
<rect width="87.2461" height="86.9157" fill="white" transform="translate(0.353516 0.568359)"/>
</clipPath>
</defs>
</svg>
