<svg width="88" height="88" viewBox="0 0 88 88" fill="none" xmlns="http://www.w3.org/2000/svg">
<g id="icons" clip-path="url(#clip0_1306_343)">
<path id="Vector" d="M33.0674 38.5938H60.3318" stroke="white" stroke-width="4.46429" stroke-linecap="round" stroke-linejoin="round"/>
<path id="Vector_2" d="M33.0674 49.458H60.3318" stroke="white" stroke-width="4.46429" stroke-linecap="round" stroke-linejoin="round"/>
<path id="Vector_3" d="M11.2568 68.4711C12.703 68.4711 14.09 67.8988 15.1126 66.8801C16.1352 65.8613 16.7097 64.4796 16.7097 63.0389V22.2972C16.7097 21.5768 16.997 20.886 17.5083 20.3766C18.0196 19.8672 18.7131 19.5811 19.4362 19.5811H73.965C74.6881 19.5811 75.3816 19.8672 75.8929 20.3766C76.4042 20.886 76.6914 21.5768 76.6914 22.2972V63.0389C76.6914 64.4796 76.1169 65.8613 75.0943 66.8801C74.0717 67.8988 72.6847 68.4711 71.2385 68.4711H11.2568Z" stroke="white" stroke-width="4.46429" stroke-linecap="round" stroke-linejoin="round"/>
<path id="Vector_4" d="M11.2556 68.4709C9.80942 68.4709 8.42246 67.8986 7.39985 66.8798C6.37723 65.8611 5.80273 64.4794 5.80273 63.0387V30.4453" stroke="white" stroke-width="4.46429" stroke-linecap="round" stroke-linejoin="round"/>
</g>
<defs>
<clipPath id="clip0_1306_343">
<rect width="87.2461" height="86.9157" fill="white" transform="translate(0.353516 0.568359)"/>
</clipPath>
</defs>
</svg>
