<svg width="88" height="88" viewBox="0 0 88 88" fill="none" xmlns="http://www.w3.org/2000/svg">
<g id="icons" clip-path="url(#clip0_1306_142)">
<path id="Vector" d="M43.9774 65.0764C45.8596 65.0764 47.3854 63.5564 47.3854 61.6813C47.3854 59.8062 45.8596 58.2861 43.9774 58.2861C42.0952 58.2861 40.5693 59.8062 40.5693 61.6813C40.5693 63.5564 42.0952 65.0764 43.9774 65.0764Z" fill="white"/>
<path id="Vector_2" d="M43.9751 49.4584V46.7423C49.9971 46.7423 54.8809 42.4848 54.8809 37.2359C54.8809 31.987 49.9971 27.7295 43.9751 27.7295C37.9531 27.7295 33.0693 31.987 33.0693 37.2359V38.5939" stroke="white" stroke-width="4.46429" stroke-linecap="round" stroke-linejoin="round"/>
<path id="Vector_3" d="M43.9761 76.6194C62.0453 76.6194 76.6934 62.0268 76.6934 44.026C76.6934 26.0252 62.0453 11.4326 43.9761 11.4326C25.9068 11.4326 11.2588 26.0252 11.2588 44.026C11.2588 62.0268 25.9068 76.6194 43.9761 76.6194Z" stroke="white" stroke-width="4.46429" stroke-linecap="round" stroke-linejoin="round"/>
</g>
<defs>
<clipPath id="clip0_1306_142">
<rect width="87.2461" height="86.9157" fill="white" transform="translate(0.353516 0.568359)"/>
</clipPath>
</defs>
</svg>
